<svg width="183" height="30" viewBox="0 0 183 30" fill="none" xmlns="http://www.w3.org/2000/svg">
<g clip-path="url(#clip0_1745_1)">
<path d="M0 2V26.3H24.5V16.6H19.6V21.4H14.7V11.7H9.8V21.4H5V6.8H19.6V11.7H24.6V1.9H0V2ZM46.7 22.9C42.2 22.9 39.1 19.8 39.1 15.3C39.1 10.3 42.8 7.8 46.6 7.8C49.3 7.8 51.6 8.7 53.2 11C53.3 11.2 53.3 11.4 53.2 11.4L50.6 13.5L50.4 13.6C50.3 13.6 50.1 13.6 50.1 13.4C49.7188 12.8568 49.2084 12.4171 48.6148 12.1203C48.0213 11.8235 47.3633 11.6791 46.7 11.7C44.5 11.7 43.1 13.2 43.1 15.3C43.1 17.5 44.5 19 46.7 19C47.3378 19.0158 47.9701 18.8788 48.5442 18.6005C49.1182 18.3221 49.6174 17.9105 50 17.4L50.3 17.2L50.6 17.3L52.8 19.5C53 19.5 53 19.8 52.8 19.9C51.6 21.9 49.5 22.9 46.8 22.9H46.7ZM69.3 8.4L61.1 29.2C61.1 29.4 60.9 29.5 60.7 29.5H57.2C57 29.5 56.9 29.3 57 29.1L59.6 22.4L54.1 8.4C54 8.2 54.1 8 54.3 8H57.9C58.1 8 58.2 8 58.3 8.3L61.5 17.5L65.2 8.3C65.2 8.1 65.4 8 65.6 8H69.1C69.3 8 69.4 8.2 69.3 8.4ZM71.4 22.5C71.2 22.5 71 22.4 71 22.2V0.8C71 0.6 71.2 0.5 71.4 0.5H74.7C74.9 0.5 75 0.6 75 0.8V9.4C76 8.4 77.3 7.8 79 7.8C83.4 7.8 86.3 10.8 86.3 15.3C86.3 19.8 83.3 22.9 78.9 22.9C77.1 22.9 75.6 22.2 74.6 20.9L74.1 22.2C74.1 22.4 74 22.6 73.8 22.6H71.4V22.5ZM75.1 15.3C75.1 17.4 76.6 18.9 78.8 18.9C80.8 18.9 82.4 17.4 82.4 15.3C82.4 13.1 80.9 11.6 78.8 11.6C76.6 11.6 75.1 13.1 75.1 15.3ZM96 19.2C97.4 19.2 98.5 18.7 99 18.2L99.4 18.1L99.6 18.2L101.7 20.4C101.9 20.5 101.9 20.7 101.7 20.9C100.4 22.3 98.4 22.9 95.9 22.9C91.2 22.9 88.1 19.9 88.1 15.4C88.1 10.8 91.1 7.8 95.7 7.8C100.3 7.8 103.3 10.4 103.3 16.6C103.3 16.8 103.2 16.9 103 16.9H92.4C92.8 18.2 94 19.2 96 19.2ZM99 14C98.6 12.5 97.5 11.4 95.6 11.4C93.7 11.4 92.6 12.4 92.2 14H99ZM112 11.7C111.2 11.7 110.3 12.3 109.8 13.3V22.3C109.8 22.5 109.7 22.6 109.5 22.6H106C105.92 22.6 105.844 22.5684 105.788 22.5121C105.732 22.4559 105.7 22.3796 105.7 22.3V8.3C105.7 8.1 105.8 8 106 8H108.3C108.6 8 108.7 8.2 108.7 8.3L109.1 9.2C110 8.3 111.2 7.7 112.7 7.7C113.7 7.7 114.5 7.9 114.9 8.1C115.1 8.1 115.2 8.3 115.2 8.5L114.3 12C114.3 12.1 114.2 12.2 114 12.2H113.8C113.5 12 112.6 11.7 112 11.7ZM117 8.3C117 8.1 117.2 8 117.4 8H120.1C120.3 8 120.4 8.1 120.5 8.3L120.8 9.7C121.305 9.02191 121.973 8.48279 122.742 8.13304C123.512 7.78328 124.357 7.63429 125.2 7.7C128.5 7.7 130.7 10.1 130.7 14.1V22.2C130.7 22.4 130.6 22.5 130.4 22.5H127C126.92 22.5 126.844 22.4684 126.788 22.4121C126.732 22.3559 126.7 22.2796 126.7 22.2V15C126.7 12.8 125.5 11.6 123.9 11.6C122.5 11.6 121.1 12.8 121 15.4V22.2C121 22.3 120.9 22.5 120.7 22.5H117.3C117.1 22.5 117 22.4 117 22.2V8.3ZM141.1 19.2C142.5 19.2 143.5 18.7 144.1 18.2L144.5 18.1L144.7 18.2L146.7 20.4C146.9 20.5 146.9 20.7 146.8 20.9C145.5 22.3 143.4 22.9 140.9 22.9C136.3 22.9 133.2 19.9 133.2 15.4C133.2 10.8 136.2 7.8 140.8 7.8C145.3 7.8 148.4 10.4 148.4 16.6C148.4 16.8 148.2 16.9 148 16.9H137.5C137.9 18.2 139.2 19.2 141.1 19.2ZM144.1 14C143.8 12.5 142.6 11.4 140.7 11.4C138.8 11.4 137.7 12.4 137.3 14H144.1ZM157.8 8.3C157.8 8.1 157.9 8 158.1 8H161C161.1 8 161.3 8 161.3 8.3L163.7 17.4L165.5 8.3C165.5 8.1 165.6 8 165.8 8H169.7C169.8 8 169.9 8.1 169.9 8.3L166 22.3L165.7 22.5H162C161.8 22.5 161.7 22.5 161.6 22.3L159.5 13.7L157.3 22.3L156.9 22.5H153.4C153.3 22.5 153.1 22.5 153.1 22.3L149.1 8.3C149.1 8.2 149.1 8 149.3 8H153.2C153.3 8 153.5 8 153.5 8.3L155.4 16.9L157.7 8.3H157.8ZM171 20.8L172.4 18.1L172.6 18H172.8C173.5 18.4 174.7 19 176.2 19.2H176.7C177.9 19.2 178.7 18.8 178.7 18.3C178.7 17.6 177.4 17.3 175.5 16.7C172.6 15.9 171.1 14.5 171.1 12.3C170.9 9.3 173.7 7.6 177.1 7.7C179.7 7.7 181.7 8.9 182.1 9.3C182.3 9.3 182.3 9.6 182.3 9.7L180.9 12.2C180.9 12.4 180.8 12.4 180.6 12.4H180.4C180 12.2 179.1 11.6 177.6 11.4H176.9C175.8 11.4 175 11.8 175 12.3C175 13 176 13.3 177.6 13.7C180.9 14.4 182.6 15.5 182.7 18.1C182.8 21.1 180.4 22.9 176.9 22.8C173.9 22.8 171.7 21.7 171.1 21.3C170.9 21.1 170.9 21 171 20.8Z" fill="white"/>
</g>
<defs>
<clipPath id="clip0_1745_1">
<rect width="183" height="30" fill="white"/>
</clipPath>
</defs>
</svg>
